M48
; DRILL file {KiCad (5.1.9)-1} date 03/15/21 02:11:57
; FORMAT={-:-/ absolute / inch / decimal}
; #@! TF.CreationDate,2021-03-15T02:11:57+07:00
; #@! TF.GenerationSoftware,Kicad,Pcbnew,(5.1.9)-1
; #@! TF.FileFunction,Plated,1,4,PTH
FMAT,2
INCH
T1C0.0079
T2C0.0118
T3C0.0157
T4C0.0256
T5C0.0315
T6C0.0394
%
G90
G05
T1
X2.2008Y-1.2799
X2.2008Y-1.3232
X2.2008Y-1.3665
X2.2008Y-1.9819
X2.2008Y-2.0252
X2.2008Y-2.0685
X2.2008Y-3.8374
X2.2008Y-3.8807
X2.2008Y-3.924
X2.2008Y-4.5374
X2.2008Y-4.5807
X2.2008Y-4.624
X2.2441Y-1.2799
X2.2441Y-1.3232
X2.2441Y-1.3665
X2.2441Y-1.9819
X2.2441Y-2.0252
X2.2441Y-2.0685
X2.2441Y-3.8374
X2.2441Y-3.8807
X2.2441Y-3.924
X2.2441Y-4.5374
X2.2441Y-4.5807
X2.2441Y-4.624
X2.2874Y-1.2799
X2.2874Y-1.3232
X2.2874Y-1.3665
X2.2874Y-1.9819
X2.2874Y-2.0252
X2.2874Y-2.0685
X2.2874Y-3.8374
X2.2874Y-3.8807
X2.2874Y-3.924
X2.2874Y-4.5374
X2.2874Y-4.5807
X2.2874Y-4.624
X2.689Y-1.2799
X2.689Y-1.3232
X2.689Y-1.3665
X2.689Y-1.9819
X2.689Y-2.0252
X2.689Y-2.0685
X2.689Y-3.8374
X2.689Y-3.8807
X2.689Y-3.924
X2.689Y-4.5374
X2.689Y-4.5807
X2.689Y-4.624
X2.7323Y-1.2799
X2.7323Y-1.3232
X2.7323Y-1.3665
X2.7323Y-1.9819
X2.7323Y-2.0252
X2.7323Y-2.0685
X2.7323Y-3.8374
X2.7323Y-3.8807
X2.7323Y-3.924
X2.7323Y-4.5374
X2.7323Y-4.5807
X2.7323Y-4.624
X2.7756Y-1.2799
X2.7756Y-1.3232
X2.7756Y-1.3665
X2.7756Y-1.9819
X2.7756Y-2.0252
X2.7756Y-2.0685
X2.7756Y-3.8374
X2.7756Y-3.8807
X2.7756Y-3.924
X2.7756Y-4.5374
X2.7756Y-4.5807
X2.7756Y-4.624
X3.1772Y-1.2799
X3.1772Y-1.3232
X3.1772Y-1.3665
X3.1772Y-1.9819
X3.1772Y-2.0252
X3.1772Y-2.0685
X3.1772Y-3.8374
X3.1772Y-3.8807
X3.1772Y-3.924
X3.1772Y-4.5374
X3.1772Y-4.5807
X3.1772Y-4.624
X3.2205Y-1.2799
X3.2205Y-1.3232
X3.2205Y-1.3665
X3.2205Y-1.9819
X3.2205Y-2.0252
X3.2205Y-2.0685
X3.2205Y-3.8374
X3.2205Y-3.8807
X3.2205Y-3.924
X3.2205Y-4.5374
X3.2205Y-4.5807
X3.2205Y-4.624
X3.2638Y-1.2799
X3.2638Y-1.3232
X3.2638Y-1.3665
X3.2638Y-1.9819
X3.2638Y-2.0252
X3.2638Y-2.0685
X3.2638Y-3.8374
X3.2638Y-3.8807
X3.2638Y-3.924
X3.2638Y-4.5374
X3.2638Y-4.5807
X3.2638Y-4.624
X3.6654Y-1.2799
X3.6654Y-1.3232
X3.6654Y-1.3665
X3.6654Y-1.9819
X3.6654Y-2.0252
X3.6654Y-2.0685
X3.6654Y-3.8374
X3.6654Y-3.8807
X3.6654Y-3.924
X3.6654Y-4.5374
X3.6654Y-4.5807
X3.6654Y-4.624
X3.7087Y-1.2799
X3.7087Y-1.3232
X3.7087Y-1.3665
X3.7087Y-1.9819
X3.7087Y-2.0252
X3.7087Y-2.0685
X3.7087Y-3.8374
X3.7087Y-3.8807
X3.7087Y-3.924
X3.7087Y-4.5374
X3.7087Y-4.5807
X3.7087Y-4.624
X3.752Y-1.2799
X3.752Y-1.3232
X3.752Y-1.3665
X3.752Y-1.9819
X3.752Y-2.0252
X3.752Y-2.0685
X3.752Y-3.8374
X3.752Y-3.8807
X3.752Y-3.924
X3.752Y-4.5374
X3.752Y-4.5807
X3.752Y-4.624
X4.1535Y-1.2799
X4.1535Y-1.3232
X4.1535Y-1.3665
X4.1535Y-1.9819
X4.1535Y-2.0252
X4.1535Y-2.0685
X4.1535Y-3.8374
X4.1535Y-3.8807
X4.1535Y-3.924
X4.1535Y-4.5374
X4.1535Y-4.5807
X4.1535Y-4.624
X4.1969Y-1.2799
X4.1969Y-1.3232
X4.1969Y-1.3665
X4.1969Y-1.9819
X4.1969Y-2.0252
X4.1969Y-2.0685
X4.1969Y-3.8374
X4.1969Y-3.8807
X4.1969Y-3.924
X4.1969Y-4.5374
X4.1969Y-4.5807
X4.1969Y-4.624
X4.2402Y-1.2799
X4.2402Y-1.3232
X4.2402Y-1.3665
X4.2402Y-1.9819
X4.2402Y-2.0252
X4.2402Y-2.0685
X4.2402Y-3.8374
X4.2402Y-3.8807
X4.2402Y-3.924
X4.2402Y-4.5374
X4.2402Y-4.5807
X4.2402Y-4.624
X4.6417Y-1.2799
X4.6417Y-1.3232
X4.6417Y-1.3665
X4.6417Y-1.9819
X4.6417Y-2.0252
X4.6417Y-2.0685
X4.6417Y-3.8374
X4.6417Y-3.8807
X4.6417Y-3.924
X4.6417Y-4.5374
X4.6417Y-4.5807
X4.6417Y-4.624
X4.685Y-1.2799
X4.685Y-1.3232
X4.685Y-1.3665
X4.685Y-1.9819
X4.685Y-2.0252
X4.685Y-2.0685
X4.685Y-3.8374
X4.685Y-3.8807
X4.685Y-3.924
X4.685Y-4.5374
X4.685Y-4.5807
X4.685Y-4.624
X4.7283Y-1.2799
X4.7283Y-1.3232
X4.7283Y-1.3665
X4.7283Y-1.9819
X4.7283Y-2.0252
X4.7283Y-2.0685
X4.7283Y-3.8374
X4.7283Y-3.8807
X4.7283Y-3.924
X4.7283Y-4.5374
X4.7283Y-4.5807
X4.7283Y-4.624
X5.1299Y-1.2799
X5.1299Y-1.3232
X5.1299Y-1.3665
X5.1299Y-1.9819
X5.1299Y-2.0252
X5.1299Y-2.0685
X5.1299Y-3.8374
X5.1299Y-3.8807
X5.1299Y-3.924
X5.1299Y-4.5374
X5.1299Y-4.5807
X5.1299Y-4.624
X5.1732Y-1.2799
X5.1732Y-1.3232
X5.1732Y-1.3665
X5.1732Y-1.9819
X5.1732Y-2.0252
X5.1732Y-2.0685
X5.1732Y-3.8374
X5.1732Y-3.8807
X5.1732Y-3.924
X5.1732Y-4.5374
X5.1732Y-4.5807
X5.1732Y-4.624
X5.2165Y-1.2799
X5.2165Y-1.3232
X5.2165Y-1.3665
X5.2165Y-1.9819
X5.2165Y-2.0252
X5.2165Y-2.0685
X5.2165Y-3.8374
X5.2165Y-3.8807
X5.2165Y-3.924
X5.2165Y-4.5374
X5.2165Y-4.5807
X5.2165Y-4.624
X5.6181Y-1.2799
X5.6181Y-1.3232
X5.6181Y-1.3665
X5.6181Y-1.9819
X5.6181Y-2.0252
X5.6181Y-2.0685
X5.6181Y-3.8374
X5.6181Y-3.8807
X5.6181Y-3.924
X5.6181Y-4.5374
X5.6181Y-4.5807
X5.6181Y-4.624
X5.6614Y-1.2799
X5.6614Y-1.3232
X5.6614Y-1.3665
X5.6614Y-1.9819
X5.6614Y-2.0252
X5.6614Y-2.0685
X5.6614Y-3.8374
X5.6614Y-3.8807
X5.6614Y-3.924
X5.6614Y-4.5374
X5.6614Y-4.5807
X5.6614Y-4.624
X5.7047Y-1.2799
X5.7047Y-1.3232
X5.7047Y-1.3665
X5.7047Y-1.9819
X5.7047Y-2.0252
X5.7047Y-2.0685
X5.7047Y-3.8374
X5.7047Y-3.8807
X5.7047Y-3.924
X5.7047Y-4.5374
X5.7047Y-4.5807
X5.7047Y-4.624
T2
X2.0197Y-2.4331
X2.0197Y-2.8583
X2.0709Y-1.3244
X2.0709Y-2.0264
X2.0709Y-3.8819
X2.0709Y-4.5819
X2.1299Y-2.9016
X2.1535Y-2.4331
X2.189Y-3.4488
X2.2795Y-3.0512
X2.3189Y-1.9465
X2.3189Y-4.5039
X2.3425Y-3.4488
X2.3622Y-1.3268
X2.3622Y-2.0291
X2.3622Y-3.8819
X2.3622Y-4.5827
X2.3661Y-3.0512
X2.4094Y-3.2913
X2.4134Y-1.3244
X2.4134Y-2.0264
X2.4134Y-3.8819
X2.4134Y-4.5819
X2.4449Y-2.3362
X2.4528Y-3.8071
X2.4528Y-3.878
X2.4606Y-2.0291
X2.4606Y-2.1
X2.4803Y-3.4921
X2.4803Y-3.5394
X2.4843Y-3.8071
X2.4843Y-3.878
X2.4921Y-2.0291
X2.4921Y-2.1
X2.5Y-3.1654
X2.5Y-3.3386
X2.5Y-3.4094
X2.5118Y-2.9094
X2.5157Y-2.3661
X2.5157Y-2.4134
X2.5236Y-3.5693
X2.5276Y-1.2205
X2.5276Y-1.2835
X2.5276Y-1.9189
X2.5276Y-1.9819
X2.5276Y-3.9252
X2.5276Y-3.9882
X2.5276Y-4.622
X2.5276Y-4.685
X2.5315Y-2.9764
X2.5315Y-3.0354
X2.5315Y-3.0945
X2.5591Y-1.324
X2.5591Y-2.0264
X2.5591Y-3.8819
X2.5591Y-4.5819
X2.5709Y-3.4449
X2.5984Y-2.9291
X2.6417Y-3.4449
X2.6811Y-2.9291
X2.689Y-2.8543
X2.7126Y-3.4449
X2.7835Y-3.4449
X2.8071Y-1.3976
X2.8071Y-1.9465
X2.8071Y-2.1
X2.8071Y-3.9567
X2.8071Y-4.5039
X2.8071Y-4.6575
X2.8504Y-1.3268
X2.8504Y-2.0291
X2.8504Y-3.8819
X2.8504Y-4.5827
X2.8543Y-3.4449
X2.9016Y-1.324
X2.9016Y-2.0264
X2.9016Y-3.8819
X2.9016Y-4.5819
X2.9252Y-3.4449
X2.9331Y-2.3362
X2.9409Y-3.8071
X2.9409Y-3.878
X2.9488Y-2.0291
X2.9488Y-2.1
X2.9685Y-3.4921
X2.9685Y-3.5394
X2.9724Y-3.8071
X2.9724Y-3.878
X2.9803Y-2.0291
X2.9803Y-2.1
X2.9961Y-3.4449
X3.0039Y-2.3661
X3.0039Y-2.4134
X3.0118Y-3.5693
X3.0157Y-1.2205
X3.0157Y-1.2835
X3.0157Y-1.9189
X3.0157Y-1.9819
X3.0157Y-3.9252
X3.0157Y-3.9882
X3.0157Y-4.622
X3.0157Y-4.685
X3.0472Y-1.3244
X3.0472Y-2.0264
X3.0472Y-3.8819
X3.0472Y-4.5819
X3.1063Y-2.7559
X3.1339Y-2.8583
X3.1339Y-2.9331
X3.1378Y-3.4449
X3.2047Y-2.6339
X3.2047Y-2.7795
X3.2087Y-3.4449
X3.2283Y-2.6142
X3.2283Y-2.815
X3.252Y-2.4488
X3.252Y-2.7244
X3.252Y-2.8504
X3.2795Y-3.4449
X3.2835Y-2.9331
X3.2835Y-3.0433
X3.2913Y-3.3346
X3.2953Y-1.9465
X3.2953Y-4.5039
X3.3346Y-3.0906
X3.3346Y-3.3031
X3.3386Y-1.3268
X3.3386Y-2.0291
X3.3386Y-3.8819
X3.3386Y-4.5827
X3.3898Y-1.3244
X3.3898Y-2.0264
X3.3898Y-3.8819
X3.3898Y-4.5819
X3.4213Y-2.3362
X3.4232Y-2.939
X3.4291Y-2.4016
X3.4291Y-3.8071
X3.4291Y-3.878
X3.437Y-2.0291
X3.437Y-2.1
X3.4567Y-3.4921
X3.4567Y-3.5394
X3.4606Y-3.8071
X3.4606Y-3.878
X3.4685Y-2.0291
X3.4685Y-2.1
X3.4921Y-2.3661
X3.4921Y-2.4134
X3.4961Y-3.0906
X3.4961Y-3.3031
X3.5Y-3.5693
X3.5039Y-1.2205
X3.5039Y-1.2835
X3.5039Y-1.9189
X3.5039Y-1.9819
X3.5039Y-3.9252
X3.5039Y-3.9882
X3.5039Y-4.622
X3.5039Y-4.685
X3.5354Y-1.3244
X3.5354Y-2.0264
X3.5354Y-3.8819
X3.5354Y-4.5819
X3.6024Y-2.8622
X3.6575Y-3.0906
X3.6575Y-3.3031
X3.7126Y-2.4567
X3.7126Y-2.9134
X3.7126Y-3.4606
X3.7283Y-2.7717
X3.7835Y-1.3976
X3.7835Y-1.9465
X3.7835Y-2.1
X3.7835Y-3.9567
X3.7835Y-4.5039
X3.7835Y-4.6575
X3.7913Y-3.185
X3.8228Y-2.9449
X3.8228Y-2.9882
X3.8268Y-1.3268
X3.8268Y-2.0291
X3.8268Y-3.8819
X3.8268Y-4.5819
X3.8337Y-2.8927
X3.8583Y-2.7205
X3.8583Y-3.185
X3.878Y-1.3244
X3.878Y-2.0264
X3.878Y-3.8819
X3.878Y-4.5819
X3.8858Y-3.0118
X3.8898Y-2.7205
X3.8898Y-3.185
X3.9094Y-2.3362
X3.9173Y-3.8071
X3.9173Y-3.878
X3.9213Y-2.7205
X3.9213Y-3.185
X3.9252Y-2.0291
X3.9252Y-2.1
X3.9449Y-3.4921
X3.9449Y-3.5394
X3.9488Y-3.8071
X3.9488Y-3.878
X3.9528Y-2.7205
X3.9528Y-3.185
X3.9567Y-2.0291
X3.9567Y-2.1
X3.9803Y-2.3661
X3.9803Y-2.4134
X3.9882Y-3.5693
X3.9921Y-1.2205
X3.9921Y-1.2835
X3.9921Y-1.9189
X3.9921Y-1.9819
X3.9921Y-3.9252
X3.9921Y-3.9882
X3.9921Y-4.622
X3.9921Y-4.685
X4.0236Y-1.3244
X4.0236Y-2.0264
X4.0236Y-3.8819
X4.0236Y-4.5819
X4.0472Y-2.7205
X4.0472Y-3.185
X4.0551Y-2.8937
X4.0551Y-2.9291
X4.0551Y-2.9646
X4.0551Y-3.0039
X4.0591Y-3.4606
X4.0787Y-2.4567
X4.0787Y-2.7205
X4.0787Y-3.185
X4.1102Y-2.7205
X4.1102Y-3.185
X4.1417Y-2.7205
X4.1417Y-3.185
X4.2047Y-2.7677
X4.248Y-3.0472
X4.248Y-3.1181
X4.2717Y-1.9465
X4.2717Y-4.5039
X4.2953Y-2.4567
X4.3031Y-3.4606
X4.315Y-1.3268
X4.315Y-2.0291
X4.315Y-3.8819
X4.315Y-4.5827
X4.3228Y-3.0787
X4.3268Y-3.3346
X4.3661Y-1.3244
X4.3661Y-2.0264
X4.3661Y-3.8819
X4.3661Y-4.5819
X4.374Y-3.1811
X4.3976Y-2.3362
X4.4055Y-3.8071
X4.4055Y-3.878
X4.4134Y-2.0291
X4.4134Y-2.1
X4.4134Y-3.4921
X4.4134Y-3.5394
X4.4331Y-2.3661
X4.4331Y-2.4134
X4.437Y-3.8071
X4.437Y-3.878
X4.4449Y-2.0291
X4.4449Y-2.1
X4.4764Y-3.5693
X4.4803Y-1.2205
X4.4803Y-1.2835
X4.4803Y-1.9189
X4.4803Y-1.9819
X4.4803Y-3.9252
X4.4803Y-3.9882
X4.4803Y-4.622
X4.4803Y-4.685
X4.5118Y-1.3244
X4.5118Y-2.0264
X4.5118Y-3.8819
X4.5118Y-4.5819
X4.685Y-2.7874
X4.6969Y-3.4606
X4.7008Y-2.4567
X4.7598Y-1.3976
X4.7598Y-1.9465
X4.7598Y-2.1
X4.7598Y-3.9567
X4.7598Y-4.5039
X4.7598Y-4.6575
X4.7874Y-3.3346
X4.8031Y-1.3268
X4.8031Y-2.0291
X4.8031Y-3.8819
X4.8031Y-4.5827
X4.8543Y-1.3244
X4.8543Y-2.0264
X4.8543Y-3.8819
X4.8543Y-4.5819
X4.8858Y-2.3362
X4.8937Y-3.8071
X4.8937Y-3.878
X4.9016Y-2.0291
X4.9016Y-2.1
X4.9016Y-3.4921
X4.9016Y-3.5394
X4.9213Y-2.3661
X4.9213Y-2.4134
X4.9252Y-3.8071
X4.9252Y-3.878
X4.9331Y-2.0291
X4.9331Y-2.1
X4.9646Y-3.5693
X4.9685Y-1.2205
X4.9685Y-1.2835
X4.9685Y-1.9189
X4.9685Y-1.9819
X4.9685Y-3.9252
X4.9685Y-3.9882
X4.9685Y-4.622
X4.9685Y-4.685
X4.9882Y-2.3937
X5.0Y-1.3244
X5.0Y-2.0264
X5.0Y-3.8819
X5.0Y-4.5819
X5.0276Y-3.2756
X5.0276Y-3.311
X5.0276Y-3.3465
X5.0827Y-2.878
X5.0827Y-3.0276
X5.1732Y-3.4449
X5.1969Y-2.4843
X5.2126Y-2.878
X5.248Y-1.9465
X5.248Y-4.5039
X5.2913Y-1.3268
X5.2913Y-2.0291
X5.2913Y-3.8819
X5.2913Y-4.5827
X5.3425Y-1.3244
X5.3425Y-2.0264
X5.3425Y-3.8819
X5.3425Y-4.5819
X5.374Y-1.2756
X5.374Y-2.3362
X5.3819Y-1.6433
X5.3819Y-1.7142
X5.3819Y-3.8071
X5.3819Y-3.878
X5.3819Y-4.1929
X5.3819Y-4.2638
X5.3898Y-2.0291
X5.3898Y-2.1
X5.3898Y-3.5
X5.3898Y-3.5472
X5.4094Y-2.3661
X5.4094Y-2.4134
X5.4134Y-1.6433
X5.4134Y-1.7142
X5.4134Y-3.8071
X5.4134Y-3.878
X5.4134Y-4.1929
X5.4134Y-4.2638
X5.4213Y-2.0291
X5.4213Y-2.1
X5.4409Y-1.3386
X5.4449Y-1.6433
X5.4449Y-1.7142
X5.4449Y-4.1929
X5.4449Y-4.2638
X5.4528Y-3.5693
X5.4567Y-1.2205
X5.4567Y-1.2835
X5.4567Y-1.9189
X5.4567Y-1.9819
X5.4567Y-3.9252
X5.4567Y-3.9882
X5.4567Y-4.622
X5.4567Y-4.685
X5.4882Y-1.3244
X5.4882Y-2.0264
X5.4882Y-3.8819
X5.4882Y-4.5819
X5.5157Y-3.0512
X5.5787Y-2.4449
X5.6102Y-3.0512
X5.6378Y-3.5
X5.6378Y-3.5472
X5.6496Y-3.2913
X5.7362Y-1.3976
X5.7362Y-1.9465
X5.7362Y-2.1
X5.7362Y-3.9567
X5.7362Y-4.5039
X5.7362Y-4.6575
X5.7795Y-1.3268
X5.7795Y-2.0291
X5.7795Y-3.8819
X5.7795Y-4.5827
X5.8268Y-2.4724
X5.8307Y-1.3244
X5.8307Y-2.0264
X5.8307Y-3.8819
X5.8307Y-4.5819
X5.8622Y-2.3362
T3
X2.2008Y-2.7165
X2.2362Y-3.1535
X2.2362Y-3.2953
X2.2795Y-2.4291
X2.2874Y-2.752
X2.3189Y-2.4291
X2.3583Y-2.4291
X2.4094Y-3.1535
X2.4798Y-2.8027
X2.4803Y-2.6102
X2.5079Y-2.5197
X2.6732Y-2.4528
X2.7835Y-2.748
X2.8858Y-2.748
X4.0Y-2.6063
X4.0Y-3.2992
X4.1339Y-3.0669
X4.4961Y-3.2047
X4.6654Y-2.5787
X4.6772Y-2.878
X4.8858Y-3.126
X5.0394Y-2.5787
X5.0394Y-2.6299
X5.0394Y-2.6772
X5.4764Y-3.1535
X5.4764Y-3.2953
X5.6496Y-3.1535
T4
X2.0669Y-1.0748
X2.0669Y-1.5748
X2.0669Y-1.7748
X2.0669Y-2.2748
X2.0669Y-3.6307
X2.0669Y-4.1307
X2.0669Y-4.3307
X2.0669Y-4.8307
X2.1169Y-1.0748
X2.1169Y-1.5748
X2.1169Y-1.7748
X2.1169Y-2.2748
X2.1169Y-3.6307
X2.1169Y-4.1307
X2.1169Y-4.3307
X2.1169Y-4.8307
X2.1669Y-1.0748
X2.1669Y-1.5748
X2.1669Y-1.7748
X2.1669Y-2.2748
X2.1669Y-3.6307
X2.1669Y-4.1307
X2.1669Y-4.3307
X2.1669Y-4.8307
X2.2169Y-1.0748
X2.2169Y-1.5748
X2.2169Y-1.7748
X2.2169Y-2.2748
X2.2169Y-3.6307
X2.2169Y-4.1307
X2.2169Y-4.3307
X2.2169Y-4.8307
X2.2669Y-1.0748
X2.2669Y-1.5748
X2.2669Y-1.7748
X2.2669Y-2.2748
X2.2669Y-3.6307
X2.2669Y-4.1307
X2.2669Y-4.3307
X2.2669Y-4.8307
X2.3169Y-1.0748
X2.3169Y-1.5748
X2.3169Y-1.7748
X2.3169Y-2.2748
X2.3169Y-3.6307
X2.3169Y-4.1307
X2.3169Y-4.3307
X2.3169Y-4.8307
X2.3669Y-1.0748
X2.3669Y-1.5748
X2.3669Y-1.7748
X2.3669Y-2.2748
X2.3669Y-3.6307
X2.3669Y-4.1307
X2.3669Y-4.3307
X2.3669Y-4.8307
X2.4169Y-1.0748
X2.4169Y-1.5748
X2.4169Y-1.7748
X2.4169Y-2.2748
X2.4169Y-3.6307
X2.4169Y-4.1307
X2.4169Y-4.3307
X2.4169Y-4.8307
X2.5551Y-1.0748
X2.5551Y-1.5748
X2.5551Y-1.7748
X2.5551Y-2.2748
X2.5551Y-3.6307
X2.5551Y-4.1307
X2.5551Y-4.3307
X2.5551Y-4.8307
X2.6051Y-1.0748
X2.6051Y-1.5748
X2.6051Y-1.7748
X2.6051Y-2.2748
X2.6051Y-3.6307
X2.6051Y-4.1307
X2.6051Y-4.3307
X2.6051Y-4.8307
X2.6551Y-1.0748
X2.6551Y-1.5748
X2.6551Y-1.7748
X2.6551Y-2.2748
X2.6551Y-3.6307
X2.6551Y-4.1307
X2.6551Y-4.3307
X2.6551Y-4.8307
X2.7051Y-1.0748
X2.7051Y-1.5748
X2.7051Y-1.7748
X2.7051Y-2.2748
X2.7051Y-3.6307
X2.7051Y-4.1307
X2.7051Y-4.3307
X2.7051Y-4.8307
X2.7551Y-1.0748
X2.7551Y-1.5748
X2.7551Y-1.7748
X2.7551Y-2.2748
X2.7551Y-3.6307
X2.7551Y-4.1307
X2.7551Y-4.3307
X2.7551Y-4.8307
X2.8051Y-1.0748
X2.8051Y-1.5748
X2.8051Y-1.7748
X2.8051Y-2.2748
X2.8051Y-3.6307
X2.8051Y-4.1307
X2.8051Y-4.3307
X2.8051Y-4.8307
X2.8551Y-1.0748
X2.8551Y-1.5748
X2.8551Y-1.7748
X2.8551Y-2.2748
X2.8551Y-3.6307
X2.8551Y-4.1307
X2.8551Y-4.3307
X2.8551Y-4.8307
X2.9051Y-1.0748
X2.9051Y-1.5748
X2.9051Y-1.7748
X2.9051Y-2.2748
X2.9051Y-3.6307
X2.9051Y-4.1307
X2.9051Y-4.3307
X2.9051Y-4.8307
X3.0433Y-1.0748
X3.0433Y-1.5748
X3.0433Y-1.7748
X3.0433Y-2.2748
X3.0433Y-3.6307
X3.0433Y-4.1307
X3.0433Y-4.3307
X3.0433Y-4.8307
X3.0933Y-1.0748
X3.0933Y-1.5748
X3.0933Y-1.7748
X3.0933Y-2.2748
X3.0933Y-3.6307
X3.0933Y-4.1307
X3.0933Y-4.3307
X3.0933Y-4.8307
X3.1433Y-1.0748
X3.1433Y-1.5748
X3.1433Y-1.7748
X3.1433Y-2.2748
X3.1433Y-3.6307
X3.1433Y-4.1307
X3.1433Y-4.3307
X3.1433Y-4.8307
X3.1933Y-1.0748
X3.1933Y-1.5748
X3.1933Y-1.7748
X3.1933Y-2.2748
X3.1933Y-3.6307
X3.1933Y-4.1307
X3.1933Y-4.3307
X3.1933Y-4.8307
X3.2433Y-1.0748
X3.2433Y-1.5748
X3.2433Y-1.7748
X3.2433Y-2.2748
X3.2433Y-3.6307
X3.2433Y-4.1307
X3.2433Y-4.3307
X3.2433Y-4.8307
X3.2933Y-1.0748
X3.2933Y-1.5748
X3.2933Y-1.7748
X3.2933Y-2.2748
X3.2933Y-3.6307
X3.2933Y-4.1307
X3.2933Y-4.3307
X3.2933Y-4.8307
X3.3433Y-1.0748
X3.3433Y-1.5748
X3.3433Y-1.7748
X3.3433Y-2.2748
X3.3433Y-3.6307
X3.3433Y-4.1307
X3.3433Y-4.3307
X3.3433Y-4.8307
X3.3933Y-1.0748
X3.3933Y-1.5748
X3.3933Y-1.7748
X3.3933Y-2.2748
X3.3933Y-3.6307
X3.3933Y-4.1307
X3.3933Y-4.3307
X3.3933Y-4.8307
X3.5315Y-1.0748
X3.5315Y-1.5748
X3.5315Y-1.7748
X3.5315Y-2.2748
X3.5315Y-3.6307
X3.5315Y-4.1307
X3.5315Y-4.3307
X3.5315Y-4.8307
X3.5815Y-1.0748
X3.5815Y-1.5748
X3.5815Y-1.7748
X3.5815Y-2.2748
X3.5815Y-3.6307
X3.5815Y-4.1307
X3.5815Y-4.3307
X3.5815Y-4.8307
X3.6315Y-1.0748
X3.6315Y-1.5748
X3.6315Y-1.7748
X3.6315Y-2.2748
X3.6315Y-3.6307
X3.6315Y-4.1307
X3.6315Y-4.3307
X3.6315Y-4.8307
X3.6815Y-1.0748
X3.6815Y-1.5748
X3.6815Y-1.7748
X3.6815Y-2.2748
X3.6815Y-3.6307
X3.6815Y-4.1307
X3.6815Y-4.3307
X3.6815Y-4.8307
X3.7315Y-1.0748
X3.7315Y-1.5748
X3.7315Y-1.7748
X3.7315Y-2.2748
X3.7315Y-3.6307
X3.7315Y-4.1307
X3.7315Y-4.3307
X3.7315Y-4.8307
X3.7815Y-1.0748
X3.7815Y-1.5748
X3.7815Y-1.7748
X3.7815Y-2.2748
X3.7815Y-3.6307
X3.7815Y-4.1307
X3.7815Y-4.3307
X3.7815Y-4.8307
X3.8315Y-1.0748
X3.8315Y-1.5748
X3.8315Y-1.7748
X3.8315Y-2.2748
X3.8315Y-3.6307
X3.8315Y-4.1307
X3.8315Y-4.3307
X3.8315Y-4.8307
X3.8815Y-1.0748
X3.8815Y-1.5748
X3.8815Y-1.7748
X3.8815Y-2.2748
X3.8815Y-3.6307
X3.8815Y-4.1307
X3.8815Y-4.3307
X3.8815Y-4.8307
X4.0197Y-1.0748
X4.0197Y-1.5748
X4.0197Y-1.7748
X4.0197Y-2.2748
X4.0197Y-3.6307
X4.0197Y-4.1307
X4.0197Y-4.3307
X4.0197Y-4.8307
X4.0697Y-1.0748
X4.0697Y-1.5748
X4.0697Y-1.7748
X4.0697Y-2.2748
X4.0697Y-3.6307
X4.0697Y-4.1307
X4.0697Y-4.3307
X4.0697Y-4.8307
X4.1197Y-1.0748
X4.1197Y-1.5748
X4.1197Y-1.7748
X4.1197Y-2.2748
X4.1197Y-3.6307
X4.1197Y-4.1307
X4.1197Y-4.3307
X4.1197Y-4.8307
X4.1697Y-1.0748
X4.1697Y-1.5748
X4.1697Y-1.7748
X4.1697Y-2.2748
X4.1697Y-3.6307
X4.1697Y-4.1307
X4.1697Y-4.3307
X4.1697Y-4.8307
X4.2197Y-1.0748
X4.2197Y-1.5748
X4.2197Y-1.7748
X4.2197Y-2.2748
X4.2197Y-3.6307
X4.2197Y-4.1307
X4.2197Y-4.3307
X4.2197Y-4.8307
X4.2697Y-1.0748
X4.2697Y-1.5748
X4.2697Y-1.7748
X4.2697Y-2.2748
X4.2697Y-3.6307
X4.2697Y-4.1307
X4.2697Y-4.3307
X4.2697Y-4.8307
X4.3197Y-1.0748
X4.3197Y-1.5748
X4.3197Y-1.7748
X4.3197Y-2.2748
X4.3197Y-3.6307
X4.3197Y-4.1307
X4.3197Y-4.3307
X4.3197Y-4.8307
X4.3697Y-1.0748
X4.3697Y-1.5748
X4.3697Y-1.7748
X4.3697Y-2.2748
X4.3697Y-3.6307
X4.3697Y-4.1307
X4.3697Y-4.3307
X4.3697Y-4.8307
X4.5079Y-1.0748
X4.5079Y-1.5748
X4.5079Y-1.7748
X4.5079Y-2.2748
X4.5079Y-3.6307
X4.5079Y-4.1307
X4.5079Y-4.3307
X4.5079Y-4.8307
X4.5579Y-1.0748
X4.5579Y-1.5748
X4.5579Y-1.7748
X4.5579Y-2.2748
X4.5579Y-3.6307
X4.5579Y-4.1307
X4.5579Y-4.3307
X4.5579Y-4.8307
X4.6079Y-1.0748
X4.6079Y-1.5748
X4.6079Y-1.7748
X4.6079Y-2.2748
X4.6079Y-3.6307
X4.6079Y-4.1307
X4.6079Y-4.3307
X4.6079Y-4.8307
X4.6579Y-1.0748
X4.6579Y-1.5748
X4.6579Y-1.7748
X4.6579Y-2.2748
X4.6579Y-3.6307
X4.6579Y-4.1307
X4.6579Y-4.3307
X4.6579Y-4.8307
X4.7079Y-1.0748
X4.7079Y-1.5748
X4.7079Y-1.7748
X4.7079Y-2.2748
X4.7079Y-3.6307
X4.7079Y-4.1307
X4.7079Y-4.3307
X4.7079Y-4.8307
X4.7579Y-1.0748
X4.7579Y-1.5748
X4.7579Y-1.7748
X4.7579Y-2.2748
X4.7579Y-3.6307
X4.7579Y-4.1307
X4.7579Y-4.3307
X4.7579Y-4.8307
X4.8079Y-1.0748
X4.8079Y-1.5748
X4.8079Y-1.7748
X4.8079Y-2.2748
X4.8079Y-3.6307
X4.8079Y-4.1307
X4.8079Y-4.3307
X4.8079Y-4.8307
X4.8579Y-1.0748
X4.8579Y-1.5748
X4.8579Y-1.7748
X4.8579Y-2.2748
X4.8579Y-3.6307
X4.8579Y-4.1307
X4.8579Y-4.3307
X4.8579Y-4.8307
X4.9961Y-1.0748
X4.9961Y-1.5748
X4.9961Y-1.7748
X4.9961Y-2.2748
X4.9961Y-3.6307
X4.9961Y-4.1307
X4.9961Y-4.3307
X4.9961Y-4.8307
X5.0461Y-1.0748
X5.0461Y-1.5748
X5.0461Y-1.7748
X5.0461Y-2.2748
X5.0461Y-3.6307
X5.0461Y-4.1307
X5.0461Y-4.3307
X5.0461Y-4.8307
X5.0961Y-1.0748
X5.0961Y-1.5748
X5.0961Y-1.7748
X5.0961Y-2.2748
X5.0961Y-3.6307
X5.0961Y-4.1307
X5.0961Y-4.3307
X5.0961Y-4.8307
X5.1461Y-1.0748
X5.1461Y-1.5748
X5.1461Y-1.7748
X5.1461Y-2.2748
X5.1461Y-3.6307
X5.1461Y-4.1307
X5.1461Y-4.3307
X5.1461Y-4.8307
X5.1961Y-1.0748
X5.1961Y-1.5748
X5.1961Y-1.7748
X5.1961Y-2.2748
X5.1961Y-3.6307
X5.1961Y-4.1307
X5.1961Y-4.3307
X5.1961Y-4.8307
X5.2461Y-1.0748
X5.2461Y-1.5748
X5.2461Y-1.7748
X5.2461Y-2.2748
X5.2461Y-3.6307
X5.2461Y-4.1307
X5.2461Y-4.3307
X5.2461Y-4.8307
X5.2961Y-1.0748
X5.2961Y-1.5748
X5.2961Y-1.7748
X5.2961Y-2.2748
X5.2961Y-3.6307
X5.2961Y-4.1307
X5.2961Y-4.3307
X5.2961Y-4.8307
X5.3461Y-1.0748
X5.3461Y-1.5748
X5.3461Y-1.7748
X5.3461Y-2.2748
X5.3461Y-3.6307
X5.3461Y-4.1307
X5.3461Y-4.3307
X5.3461Y-4.8307
X5.4843Y-1.0748
X5.4843Y-1.5748
X5.4843Y-1.7748
X5.4843Y-2.2748
X5.4843Y-3.6307
X5.4843Y-4.1307
X5.4843Y-4.3307
X5.4843Y-4.8307
X5.5343Y-1.0748
X5.5343Y-1.5748
X5.5343Y-1.7748
X5.5343Y-2.2748
X5.5343Y-3.6307
X5.5343Y-4.1307
X5.5343Y-4.3307
X5.5343Y-4.8307
X5.5843Y-1.0748
X5.5843Y-1.5748
X5.5843Y-1.7748
X5.5843Y-2.2748
X5.5843Y-3.6307
X5.5843Y-4.1307
X5.5843Y-4.3307
X5.5843Y-4.8307
X5.6343Y-1.0748
X5.6343Y-1.5748
X5.6343Y-1.7748
X5.6343Y-2.2748
X5.6343Y-3.6307
X5.6343Y-4.1307
X5.6343Y-4.3307
X5.6343Y-4.8307
X5.6843Y-1.0748
X5.6843Y-1.5748
X5.6843Y-1.7748
X5.6843Y-2.2748
X5.6843Y-3.6307
X5.6843Y-4.1307
X5.6843Y-4.3307
X5.6843Y-4.8307
X5.7343Y-1.0748
X5.7343Y-1.5748
X5.7343Y-1.7748
X5.7343Y-2.2748
X5.7343Y-3.6307
X5.7343Y-4.1307
X5.7343Y-4.3307
X5.7343Y-4.8307
X5.7843Y-1.0748
X5.7843Y-1.5748
X5.7843Y-1.7748
X5.7843Y-2.2748
X5.7843Y-3.6307
X5.7843Y-4.1307
X5.7843Y-4.3307
X5.7843Y-4.8307
X5.8343Y-1.0748
X5.8343Y-1.5748
X5.8343Y-1.7748
X5.8343Y-2.2748
X5.8343Y-3.6307
X5.8343Y-4.1307
X5.8343Y-4.3307
X5.8343Y-4.8307
T5
X3.5354Y-2.6457
X3.5354Y-2.7441
X5.2205Y-3.0787
X5.2205Y-3.1772
T6
X2.0669Y-3.0717
X2.0669Y-3.1717
X2.0669Y-3.2717
X2.0669Y-3.3717
X2.0669Y-3.4717
X4.3661Y-2.6402
X4.3661Y-2.7402
X4.4661Y-2.6402
X4.4661Y-2.7402
X4.5661Y-2.6402
X4.5661Y-2.7402
X5.8189Y-3.0748
X5.8189Y-3.1748
X5.8189Y-3.2748
X5.8189Y-3.3748
X5.8189Y-3.4748
T6
G00X5.3386Y-2.7874
M15
G01X5.3386Y-2.7087
M16
G05
G00X5.4961Y-2.563
M15
G01X5.4173Y-2.563
M16
G05
G00X5.5748Y-2.7874
M15
G01X5.5748Y-2.7087
M16
G05
T0
M30
